<svg width="1564" height="559" viewBox="0 0 1564 559" fill="none" xmlns="http://www.w3.org/2000/svg">
<path d="M115.47 221.206C119.57 215.857 120.014 216.231 120.014 216.231L266.049 12.4751C266.89 11.2956 267.391 9.90707 267.496 8.4617C267.601 7.01634 267.306 5.56998 266.643 4.2813C265.981 2.99262 264.976 1.91137 263.74 1.15617C262.504 0.400957 261.084 0.000935879 259.635 4.71585e-06H231.424C230.112 -0.00142983 228.821 0.324447 227.667 0.947966C226.514 1.57149 225.533 2.47302 224.815 3.57104L204.912 34.0412L188.102 57.2603L117.582 157.193C80.8924 213.799 69.4366 211.405 57.9729 211.405C55.247 211.406 52.5476 210.87 50.0288 209.827C47.5101 208.784 45.2213 207.254 43.2933 205.326C41.3654 203.398 39.8361 201.109 38.7927 198.589C37.7493 196.07 37.2121 193.369 37.2121 190.642V7.89826C37.2131 6.86207 37.0101 5.83576 36.6147 4.87806C36.2193 3.92035 35.6394 3.05003 34.9078 2.31661C34.1762 1.58319 33.3072 1.00114 32.3507 0.603664C31.3942 0.206186 30.3691 0.00102811 29.3334 4.71585e-06H9.492C8.45464 -0.00101983 7.42721 0.20244 6.46851 0.598905C5.50982 0.995371 4.63863 1.57714 3.90474 2.31066C3.17085 3.04418 2.58866 3.91524 2.19144 4.87401C1.79422 5.83278 1.58998 6.86039 1.58998 7.89826V129.935C-0.225238 152.805 -0.329503 175.779 1.27819 198.665C9.98308 256.37 83.3394 263.246 115.47 221.206Z" fill="url(#paint0_linear_19_637)"/>
<path d="M354.033 3.48514C354.259 3.1715 354.399 2.80409 354.438 2.4194C354.478 2.0347 354.415 1.6462 354.257 1.29322C354.099 0.940229 353.852 0.635056 353.539 0.408071C353.226 0.181085 352.859 0.0403512 352.474 0H322.214C318.606 0.0636846 315.071 1.02325 311.926 2.79249C308.781 4.56173 306.125 7.08509 304.196 10.1359L288.61 32.3259L218.324 136.243L126.24 256.611C101.365 288.461 45.6833 290.302 26.2239 277.133L24.5095 276.049C13.7589 271.118 5.08318 262.562 0 251.878C0 251.878 0.124667 252.44 0.366253 253.438C4.0989 269.146 12.4028 283.394 24.2281 294.382C36.0534 305.369 50.8693 312.602 66.8026 315.166C81.5386 317.056 96.503 315.996 110.826 312.047C128.423 307.369 149.137 285.6 156.906 274.217L158.029 272.79L219.313 385.774L219.984 387.022C221.316 389.034 223.158 390.657 225.32 391.726C227.483 392.796 229.89 393.274 232.297 393.111H256.791C256.791 393.111 265.067 393.057 261.03 385.774L181.65 242.242L202.831 214.898L298.016 387.295C299.36 389.231 301.184 390.784 303.308 391.804C305.432 392.823 307.784 393.274 310.134 393.111H334.73C334.73 393.111 342.904 393.033 339 385.845L226.21 183.905L354.033 3.48514Z" fill="url(#paint1_linear_19_637)"/>
<path d="M1243.48 182.798C1235.4 165.739 1224.12 150.388 1210.25 137.576C1195.95 124.606 1179.45 114.29 1161.53 107.113C1123.01 92.1789 1080.31 92.1624 1041.78 107.067C1023.67 114.174 1007 124.529 992.607 137.623C978.741 150.438 967.513 165.842 959.557 182.969C951.418 200.667 947.288 219.946 947.462 239.427V543.599C947.403 545.584 947.766 547.559 948.526 549.393C949.287 551.227 950.428 552.879 951.873 554.24C953.319 555.6 955.037 556.638 956.914 557.285C958.791 557.932 960.783 558.173 962.76 557.992H1010.63C1012.61 558.174 1014.6 557.934 1016.48 557.288C1018.36 556.642 1020.07 555.605 1021.52 554.246C1022.97 552.886 1024.11 551.235 1024.87 549.401C1025.63 547.567 1026 545.592 1025.94 543.607V363.234C1034.05 367.524 1042.49 371.136 1051.2 374.032C1087.25 385.726 1126.24 384.586 1161.55 370.805C1179.48 363.627 1195.98 353.294 1210.27 340.295C1224.12 327.451 1235.42 312.109 1243.59 295.073C1251.75 277.481 1255.97 258.319 1255.95 238.926C1255.94 219.533 1251.69 200.377 1243.51 182.798H1243.48ZM1171.56 265.063C1167.65 273.43 1162.15 280.95 1155.35 287.198C1144.29 297.27 1130.64 304.043 1115.93 306.751C1101.23 309.458 1086.06 307.993 1072.14 302.519C1063.27 299.095 1055.11 294.074 1048.05 287.705C1041.26 281.464 1035.76 273.962 1031.84 265.617C1027.86 257.299 1025.83 248.18 1025.92 238.959C1025.88 229.902 1027.8 220.945 1031.56 212.707C1035.38 204.443 1040.76 197.002 1047.42 190.797C1054.58 184.325 1062.82 179.167 1071.78 175.563C1081.29 171.779 1091.45 169.878 1101.7 169.964C1111.76 169.911 1121.74 171.812 1131.08 175.563C1140.01 179.134 1148.23 184.278 1155.35 190.751C1162.14 196.991 1167.64 204.493 1171.56 212.839C1175.53 220.969 1177.55 229.911 1177.48 238.959C1177.51 247.997 1175.49 256.925 1171.56 265.063Z" fill="#252B37"/>
<path d="M1547.83 94.7869H1499.81C1497.87 94.5904 1495.91 94.8052 1494.06 95.4175C1492.21 96.0298 1490.51 97.0257 1489.07 98.3401C1487.64 99.6545 1486.49 101.258 1485.72 103.045C1484.94 104.832 1484.55 106.763 1484.57 108.712V254.826C1484.6 261.577 1483.13 268.25 1480.27 274.365C1477.43 280.492 1473.37 285.979 1468.35 290.497C1462.91 295.312 1456.66 299.133 1449.9 301.786C1435.64 307.343 1419.82 307.343 1405.56 301.786C1398.86 299.229 1392.7 295.446 1387.38 290.629C1382.38 286.023 1378.36 280.454 1375.56 274.256C1372.69 268.177 1371.22 261.532 1371.26 254.81V108.665C1371.27 106.722 1370.88 104.797 1370.1 103.016C1369.32 101.235 1368.18 99.6387 1366.74 98.3301C1365.3 97.0215 1363.61 96.0304 1361.76 95.4213C1359.92 94.8121 1357.96 94.5987 1356.03 94.7948H1308C1306.08 94.5992 1304.13 94.8106 1302.29 95.4153C1300.46 96.02 1298.76 97.0044 1297.33 98.3049C1295.9 99.6053 1294.75 101.193 1293.97 102.964C1293.19 104.735 1292.79 106.651 1292.8 108.587V254.841C1292.7 276.259 1298.56 297.283 1309.72 315.556C1320.78 333.534 1335.94 348.63 1353.97 359.6C1364.86 366.085 1376.54 371.145 1388.71 374.656C1414.34 381.885 1441.46 381.885 1467.09 374.656C1479.3 371.136 1491 366.077 1501.93 359.6C1520.15 348.727 1535.43 333.56 1546.45 315.423C1557.43 297.136 1563.16 276.175 1563.02 254.841V108.517C1563.02 106.586 1562.61 104.676 1561.83 102.911C1561.05 101.146 1559.91 99.5655 1558.47 98.2711C1557.04 96.9767 1555.36 95.9977 1553.52 95.3975C1551.69 94.7972 1549.75 94.5892 1547.83 94.7869Z" fill="#252B37"/>
<path d="M870.076 10.3464H862.05C842.867 10.3464 827.316 25.9049 827.316 45.0972V45.105C827.316 64.2973 842.867 79.8557 862.05 79.8557H870.076C889.259 79.8557 904.81 64.2973 904.81 45.105V45.0972C904.81 25.9049 889.259 10.3464 870.076 10.3464Z" fill="#252B37"/>
<path d="M905.293 135.58C905.293 113.903 887.729 96.3306 866.063 96.3306C844.397 96.3306 826.833 113.903 826.833 135.58V342.361C826.833 364.038 844.397 381.611 866.063 381.611C887.729 381.611 905.293 364.038 905.293 342.361V135.58Z" fill="#252B37"/>
<path d="M784.773 363.14L683.463 219.217C681.971 217.09 681.289 214.499 681.542 211.913C681.795 209.327 682.966 206.917 684.842 205.121L778.975 115.316C778.975 115.316 779.84 114.747 779.755 112.197C779.7 109.944 778.827 107.223 773.52 106.739H697.545C691.385 107.826 685.725 110.827 681.367 115.316L608.828 188.607C596.063 196.575 593.935 183.547 593.935 183.547V19.7105C593.85 18.7671 592.977 10.3541 581.295 10.3541H581.35H524.897C512.568 10.3541 512.069 20.2406 512.069 20.2406V363.124C512.069 363.124 512.576 373.011 524.897 373.011L524.811 373.058H581.326C593.016 373.058 593.873 364.645 593.967 363.701V297.794C594.086 294.206 595.51 290.785 597.972 288.173L611.096 275.394C612.536 274.155 614.209 273.215 616.015 272.629C617.822 272.043 619.727 271.822 621.62 271.98C623.513 272.137 625.356 272.67 627.041 273.546C628.726 274.423 630.22 275.626 631.436 277.086L691.802 364.2C693.454 366.605 695.595 368.635 698.084 370.156C700.574 371.677 703.357 372.655 706.25 373.027L706.164 373.073H781.578C783.799 373.073 785.365 370.734 785.81 369.175C786.199 367.104 785.831 364.962 784.773 363.14Z" fill="#252B37"/>
<defs>
<linearGradient id="paint0_linear_19_637" x1="467.51" y1="369.253" x2="54.8716" y2="-1.01543" gradientUnits="userSpaceOnUse">
<stop offset="0.262" stop-color="#0036FF"/>
<stop offset="0.792" stop-color="#00CCFF"/>
</linearGradient>
<linearGradient id="paint1_linear_19_637" x1="470.709" y1="365.231" x2="1.81941" y2="70.8098" gradientUnits="userSpaceOnUse">
<stop offset="0.262" stop-color="#0036FF"/>
<stop offset="0.792" stop-color="#00CCFF"/>
</linearGradient>
</defs>
</svg>
